<svg viewBox="0 0 50 50" xmlns="http://www.w3.org/2000/svg">
    <circle cx="25" cy="25" r="24" fill="#0d0d0d" stroke="#22c55e" stroke-width="1.5"/>
    <line x1="25" y1="8" x2="25" y2="26" stroke="#22c55e" stroke-width="2.5" stroke-linecap="round"/>
    <path d="M20 25 L20 30 Q20 37.5 25 39 Q30 37.5 30 30 L30 25 Z" fill="#22c55e"/>
    <path d="M22 27 C20 22 16 18 12 13 C11 11 10 9 10 7" fill="none" stroke="#22c55e" stroke-width="1.8" stroke-linecap="round"/>
    <path d="M21 32 C17 30 14 28 11 24" fill="none" stroke="#22c55e" stroke-width="1.4" stroke-linecap="round"/>
    <path d="M28 27 C30 22 34 18 38 13 C39 11 40 9 40 7" fill="none" stroke="#22c55e" stroke-width="1.8" stroke-linecap="round"/>
    <path d="M29 32 C33 30 36 28 39 24" fill="none" stroke="#22c55e" stroke-width="1.4" stroke-linecap="round"/>
    <ellipse cx="17" cy="19" rx="3.2" ry="1.5" fill="#22c55e" transform="rotate(-55 17 19)"/>
    <ellipse cx="12" cy="13.5" rx="2.8" ry="1.3" fill="#22c55e" transform="rotate(-70 12 13.5)"/>
    <ellipse cx="14" cy="27" rx="2.8" ry="1.3" fill="#22c55e" transform="rotate(-15 14 27)"/>
    <ellipse cx="33" cy="19" rx="3.2" ry="1.5" fill="#22c55e" transform="rotate(55 33 19)"/>
    <ellipse cx="38" cy="13.5" rx="2.8" ry="1.3" fill="#22c55e" transform="rotate(70 38 13.5)"/>
    <ellipse cx="36" cy="27" rx="2.8" ry="1.3" fill="#22c55e" transform="rotate(15 36 27)"/>
    <g transform="translate(10,7)">
        <ellipse ry="2.1" rx="1" fill="white"/>
        <ellipse ry="2.1" rx="1" fill="white" transform="rotate(60)"/>
        <ellipse ry="2.1" rx="1" fill="white" transform="rotate(120)"/>
        <circle r="1.4" fill="white"/>
        <circle r="0.7" fill="#d0d0d0"/>
    </g>
    <g transform="translate(40,7)">
        <ellipse ry="2.1" rx="1" fill="white"/>
        <ellipse ry="2.1" rx="1" fill="white" transform="rotate(60)"/>
        <ellipse ry="2.1" rx="1" fill="white" transform="rotate(120)"/>
        <circle r="1.4" fill="white"/>
        <circle r="0.7" fill="#d0d0d0"/>
    </g>
</svg>
