<svg viewBox="0 0 50 50" xmlns="http://www.w3.org/2000/svg">
    <circle cx="25" cy="25" r="24" fill="#0d0d0d" stroke="#22c55e" stroke-width="1.5"/>
    <line x1="25" y1="11" x2="25" y2="30" stroke="#22c55e" stroke-width="2.2" stroke-linecap="round"/>
    <path d="M19 28 L19 33 Q25 38 31 33 L31 28 Z" fill="#22c55e"/>
    <path d="M24 16 Q19 13 15 10" fill="none" stroke="#22c55e" stroke-width="1.5" stroke-linecap="round"/>
    <path d="M24 20 Q18 18 13 16" fill="none" stroke="#22c55e" stroke-width="1.5" stroke-linecap="round"/>
    <path d="M26 16 Q31 13 35 10" fill="none" stroke="#22c55e" stroke-width="1.5" stroke-linecap="round"/>
    <path d="M26 20 Q32 18 37 16" fill="none" stroke="#22c55e" stroke-width="1.5" stroke-linecap="round"/>
    <ellipse cx="14" cy="10" rx="2.5" ry="1.4" fill="#22c55e" transform="rotate(-40 14 10)"/>
    <ellipse cx="12" cy="16" rx="2.5" ry="1.4" fill="#22c55e" transform="rotate(-10 12 16)"/>
    <ellipse cx="36" cy="10" rx="2.5" ry="1.4" fill="#22c55e" transform="rotate(40 36 10)"/>
    <ellipse cx="38" cy="16" rx="2.5" ry="1.4" fill="#22c55e" transform="rotate(10 38 16)"/>
    <circle cx="14" cy="8" r="2.2" fill="white" opacity="0.92"/>
    <circle cx="14" cy="8" r="0.9" fill="#ccc"/>
    <circle cx="36" cy="8" r="2.2" fill="white" opacity="0.92"/>
    <circle cx="36" cy="8" r="0.9" fill="#ccc"/>
</svg>
